<svg xmlns="http://www.w3.org/2000/svg" width="24" height="24" viewBox="0 0 24 24">
    <g fill="none" fill-rule="evenodd">
        <path d="M0 0h24v24H0z"/>
        <path fill="#9B9B9B" d="M12 20a8 8 0 1 1 0-16 8 8 0 0 1 0 16zm-.73-6.6h1.41c.224 0 .336-.097.424-.303.449-1.006 1.895-1.176 1.895-3.188.013-.364-.087-2.509-2.88-2.509C9.549 7.4 9.076 9.024 9 9.897c-.013.218.1.351.324.4l1.422.303c.25.048.374-.06.411-.303.088-.497.374-.812.96-.812.487 0 .686.436.612.8-.262 1.236-1.51 1.067-1.809 2.715-.05.255.1.4.35.4zm1.381 1.2H11.35c-.221 0-.349.116-.349.349v1.302c0 .221.128.349.349.349h1.302c.233 0 .349-.128.349-.349V14.95c0-.233-.116-.349-.349-.349z"/>
    </g>
</svg>
